<svg version="1.0" xmlns="http://www.w3.org/2000/svg"
 width="512.000000pt" height="512.000000pt" viewBox="0 0 512.000000 512.000000"
 preserveAspectRatio="xMidYMid meet" class="logo-svg">

<g transform="translate(0.000000,512.000000) scale(0.100000,-0.100000)"
fill="#ffffff" stroke="none">
<path d="M2530 3676 c-1494 -578 -2494 -971 -2508 -984 -27 -26 -29 -72 -4
-101 11 -13 277 -120 762 -306 410 -158 746 -288 748 -290 2 -2 111 -336 243
-742 177 -545 245 -743 260 -755 27 -23 71 -23 97 0 21 18 582 774 601 810 20
37 13 79 -15 101 -32 25 -61 27 -91 6 -12 -8 -76 -89 -143 -180 -67 -91 -123
-165 -125 -165 -2 0 7 28 20 63 13 34 56 153 97 264 40 112 77 203 82 203 5 0
435 -162 957 -360 522 -198 962 -360 978 -360 16 0 39 8 51 18 20 16 42 149
301 1832 153 998 279 1825 279 1838 0 32 -43 72 -77 71 -15 0 -1146 -434
-2513 -963z m2143 -986 c-135 -883 -249 -1609 -253 -1613 -5 -6 -1720 636
-1767 662 -8 4 391 460 1125 1283 625 702 1137 1276 1138 1275 2 -1 -108 -724
-243 -1607z m-203 1556 c-8 -7 -519 -379 -1135 -825 -616 -447 -1128 -822
-1137 -833 -43 -50 1 -134 65 -126 23 3 337 226 1115 792 596 433 1085 786
1086 784 2 -2 -449 -509 -1001 -1128 -553 -619 -1012 -1137 -1022 -1152 -9
-15 -93 -235 -186 -489 l-170 -462 -122 374 c-67 206 -161 495 -209 644 -59
181 -94 276 -108 288 -12 10 -307 128 -656 263 -349 134 -646 249 -660 255
-22 9 214 103 2060 819 1147 444 2087 808 2090 809 2 1 -2 -5 -10 -13z"/>
<path d="M1979 2432 c-34 -16 -187 -133 -193 -148 -13 -33 -5 -71 17 -92 39
-37 73 -29 172 43 102 74 115 88 115 126 0 51 -64 93 -111 71z"/>
</g>
</svg>
